PathFileType	4	(X/Y/Z)	C:\Users\Basilio\Documents\Thesis Gigler\squatting_fais\c3dfiles\038\SLS_front_pre4\markers_experimental.trc
DataRate	CameraRate	NumFrames	NumMarkers	Units	OrigDataRate	OrigDataStartFrame	OrigNumFrames
200.000000	200.000000	4	61	mm	200.000000	880	1408
Frame#	Time	FHD			LBHD			RBHD			C7			T10			CLAV			LSHO			LUUPA			LMUPA			LDUPA			LLEP			LMEP			LRAD			LUL			LRFIN			RSHO			RUPA1			RMUPA			RDUPA			RLEP			RMEP			RRAD			RUL			RUFIN			LASI			RASI			USACR			LSACR			RSACR			LTHI1			LTHI2			LTHI3			LTHI4			LLFC			LMFC			LTIB1			LTIB2			LTIB3			LTIB4			LLMAL			LMMAL			LHEE			LMT1			LMT2			LMT5			RTHI			RTHI2			RTHI3			RTHI4			RLFC			RMFC			RTIB1			RTIB2			RTIB3			RTIB4			RLMAL			RMMAL			RHEE			RMT1			RMT2			RMT5			
		X1	Y1	Z1	X2	Y2	Z2	X3	Y3	Z3	X4	Y4	Z4	X5	Y5	Z5	X6	Y6	Z6	X7	Y7	Z7	X8	Y8	Z8	X9	Y9	Z9	X10	Y10	Z10	X11	Y11	Z11	X12	Y12	Z12	X13	Y13	Z13	X14	Y14	Z14	X15	Y15	Z15	X16	Y16	Z16	X17	Y17	Z17	X18	Y18	Z18	X19	Y19	Z19	X20	Y20	Z20	X21	Y21	Z21	X22	Y22	Z22	X23	Y23	Z23	X24	Y24	Z24	X25	Y25	Z25	X26	Y26	Z26	X27	Y27	Z27	X28	Y28	Z28	X29	Y29	Z29	X30	Y30	Z30	X31	Y31	Z31	X32	Y32	Z32	X33	Y33	Z33	X34	Y34	Z34	X35	Y35	Z35	X36	Y36	Z36	X37	Y37	Z37	X38	Y38	Z38	X39	Y39	Z39	X40	Y40	Z40	X41	Y41	Z41	X42	Y42	Z42	X43	Y43	Z43	X44	Y44	Z44	X45	Y45	Z45	X46	Y46	Z46	X47	Y47	Z47	X48	Y48	Z48	X49	Y49	Z49	X50	Y50	Z50	X51	Y51	Z51	X52	Y52	Z52	X53	Y53	Z53	X54	Y54	Z54	X55	Y55	Z55	X56	Y56	Z56	X57	Y57	Z57	X58	Y58	Z58	X59	Y59	Z59	X60	Y60	Z60	X61	Y61	Z61	

881	4.4	-197.7668914794922	1512.171264648438	-1118.71240234375	-355.1112670898438	1468.222045898438	-1181.223022460938	-349.0914306640626	1454.072021484375	-1036.718505859375	-419.2723693847657	1311.151489257813	-1103.264282226563	-488.8074035644532	1039.004028320313	-1070.410400390625	-279.0944213867188	1263.702026367188	-1112.204711914063	-334.9758300781251	1307.652587890625	-1252.388793945313	-175.4284820556641	1248.150634765625	-1382.699340820313	-147.4955139160157	1280.654052734375	-1354.33056640625	-105.9286270141602	1254.251708984375	-1389.272216796875	-44.0223731994629	1256.479736328125	-1389.96044921875	-34.69438552856446	1181.64453125	-1368.308715820313	nan	nan	nan	250.7511444091797	1266.787109375	-1347.381225585938	309.3856811523438	1276.031982421875	-1253.62744140625	-315.1195678710938	1316.440063476563	-974.5822753906252	-160.9544677734375	1290.255126953125	-855.3530273437502	-125.4196472167969	1296.16015625	-888.4232177734377	-93.86973571777345	1283.9111328125	-838.4034423828127	-20.33737373352051	1279.080688476563	-828.1878662109377	-17.38822937011719	1199.877197265625	-840.7752075195315	254.2068481445313	1260.379516601563	-916.424743652344	265.8597717285157	1279.887573242188	-849.0657348632815	335.3350524902344	1292.77490234375	-924.7249755859377	-329.6253662109376	845.9185791015627	-1156.69970703125	-368.7645568847657	872.7041015625002	-911.2752075195315	-514.8152465820314	868.7838134765627	-1052.511840820313	-516.9904785156251	834.2139892578127	-1078.60009765625	-525.1882324218751	837.8840332031252	-1023.126892089844	-191.7160034179688	582.3968505859376	-1214.602905273438	-117.0329666137696	539.2921752929689	-1213.555786132813	-83.70603942871095	569.7870483398439	-1190.752685546875	-108.8517379760742	480.6452026367189	-1196.583618164063	-83.77828216552736	434.9490661621095	-1182.572998046875	-72.13868713378908	440.7104492187501	-1066.049194335938	-128.698226928711	273.1912231445313	-1081.640869140625	-190.7222290039063	250.2409210205079	-1141.874633789063	-161.0167541503907	232.4125976562501	-1110.0537109375	-215.2089385986329	181.1792602539063	-1068.524780273438	-358.2226867675782	108.4571533203125	-1079.662231445313	-315.3078308105469	126.1196899414063	-1006.289001464844	-416.8410644531251	94.59883117675783	-1016.955139160156	-215.1708068847657	45.89828491210938	-1017.750183105469	-209.7112579345704	44.39595413208009	-1068.827758789063	-257.3232421875001	32.6627426147461	-1112.928588867188	-237.1805877685547	664.6732177734376	-846.5637817382815	-170.4584045410157	663.4041748046876	-847.9993286132815	-153.0024719238282	690.5078735351564	-854.6580200195315	-123.3700103759766	591.9174804687501	-863.8135375976565	-3.120064973831178	526.7767333984376	-876.1875000000002	-3.47378969192505	526.2436523437501	-998.9479980468752	165.17724609375	457.4770507812501	-902.8836669921877	183.3193511962891	346.9744873046876	-867.7280273437502	208.4398040771485	385.8111267089845	-877.7095336914065	255.5901641845704	365.6576538085938	-906.533630371094	317.0691833496094	239.8420104980469	-876.0508422851565	330.3686828613282	271.7535095214844	-956.2128906250002	327.6020507812501	166.2489013671875	-940.1480102539065	446.4708251953126	348.2292785644532	-921.2026977539065	437.1214904785157	348.2362670898438	-873.720642089844	429.622528076172	300.8934326171876	-831.6225585937502	
882	4.405	-197.9107360839844	1512.142944335938	-1118.660766601563	-355.2103881835938	1468.31884765625	-1181.337646484375	-349.2519226074219	1454.078247070313	-1036.803833007813	-419.3928833007814	1311.24658203125	-1103.362182617188	-488.7929992675782	1038.999389648438	-1070.452270507813	-279.1284484863282	1263.7255859375	-1112.255493164063	-335.0416870117188	1307.683959960938	-1252.506225585938	-175.4195861816407	1248.245483398438	-1382.74951171875	-147.5556182861328	1280.742919921875	-1354.433715820313	-105.8674545288086	1254.360961914063	-1389.358154296875	-44.04345703125001	1256.708984375	-1390.101928710938	-34.66319274902344	1181.844116210938	-1368.341430664063	nan	nan	nan	250.8579406738282	1267.010009765625	-1347.503173828125	309.3719482421876	1276.335083007813	-1253.785888671875	-315.2138977050782	1316.53662109375	-974.6968383789065	-161.1155242919922	1290.399169921875	-855.3687133789065	-125.5716857910157	1296.276000976563	-888.4121093750002	-93.98068237304689	1284.108154296875	-838.3507080078127	-20.4488697052002	1279.198486328125	-828.1673583984377	-17.39588928222657	1199.979858398438	-840.7254028320315	254.1013946533204	1260.676147460938	-916.3758544921877	265.7365722656251	1280.12841796875	-848.913269042969	334.9539489746094	1292.773315429688	-924.4033203125002	-329.5910339355469	846.0048828125002	-1156.75244140625	-368.7012634277344	872.7307128906252	-911.3626098632815	-514.7667236328126	868.8107910156252	-1052.570068359375	-516.9791259765626	834.2441406250002	-1078.537841796875	-525.0805053710939	837.9108886718752	-1023.085083007813	-191.6764831542969	582.4436035156251	-1214.561767578125	-117.066032409668	539.3300170898439	-1213.516357421875	-83.5665740966797	569.8337402343751	-1190.661865234375	-108.8161849975586	480.632781982422	-1196.497680664063	-83.79280853271486	434.9018859863282	-1182.536499023438	-72.23672485351564	440.6976928710939	-1065.958251953125	-128.7560424804688	273.1953430175782	-1081.520263671875	-190.7201080322266	250.1884765625001	-1141.76904296875	-161.0174713134766	232.3593902587891	-1109.91845703125	-215.1919708251954	181.1637573242188	-1068.50390625	-358.2257690429688	108.453857421875	-1079.673950195313	-315.2835998535157	126.1483612060547	-1006.240478515625	-416.846160888672	94.59008789062501	-1016.955993652344	-215.1661376953126	45.90950775146485	-1017.733459472656	-209.7065887451172	44.36044692993165	-1068.830200195313	-257.3488769531251	32.6646842956543	-1112.930541992188	-237.1076660156251	664.6512451171876	-846.692565917969	-170.3382873535157	663.4013671875001	-848.0937500000002	-152.8555755615235	690.4204711914064	-854.7899169921877	-123.3407592773438	591.8969726562501	-863.9050292968752	-3.164041280746461	526.7070922851564	-876.264831542969	-3.468446493148805	526.0364379882814	-999.103454589844	165.1344451904297	456.8590087890626	-903.3468017578127	183.257064819336	346.9369506835938	-867.897888183594	208.4383087158204	385.7290954589845	-877.8565673828127	255.5569458007813	365.6143493652344	-906.6778564453127	317.0103149414063	239.6983947753907	-876.159118652344	330.3381042480469	271.5460205078126	-956.3983154296877	328.4891967773438	165.5048065185547	-940.4536743164065	446.3518676757814	348.0711059570313	-921.316589355469	436.8911132812501	348.1137084960938	-873.865661621094	429.5875854492189	300.7663574218751	-831.8135375976565	
883	4.41	-198.0198059082032	1512.190673828125	-1118.608764648438	-355.2734985351563	1468.432861328125	-1181.398803710938	-349.3712768554688	1454.070556640625	-1036.851196289063	-419.4620971679689	1311.201416015625	-1103.506958007813	-488.769989013672	1039.0087890625	-1070.519775390625	-279.1420288085938	1263.764404296875	-1112.3623046875	-335.1219787597657	1307.7509765625	-1252.6494140625	-175.4540710449219	1248.304809570313	-1382.807739257813	-147.6289367675782	1280.901977539063	-1354.565307617188	-105.8816146850586	1254.492919921875	-1389.474365234375	-44.11774826049805	1256.88720703125	-1390.166625976563	-34.70891571044923	1182.085693359375	-1368.57080078125	nan	nan	nan	250.7935028076172	1267.224731445313	-1347.648803710938	309.4048156738282	1276.666381835938	-1253.979248046875	-315.3387451171876	1316.596557617188	-974.7859497070315	-161.2423706054688	1290.573364257813	-855.4376220703127	-125.758529663086	1296.509765625	-888.4729614257815	-94.12425231933595	1284.283081054688	-838.3521118164065	-20.6300106048584	1279.422729492188	-828.085876464844	-17.52345657348633	1200.255615234375	-840.6653442382815	253.9038543701172	1260.835693359375	-916.2087402343752	265.6448059082032	1280.355346679688	-848.841247558594	335.0345153808594	1292.982055664063	-924.1885986328127	-329.6023864746094	846.101745605469	-1156.76171875	-368.6403808593751	872.7568969726565	-911.389099121094	-514.6477661132814	868.4927978515627	-1052.407348632813	-516.9063720703126	834.3217773437502	-1078.487426757813	-525.0607910156251	838.0064697265627	-1022.998168945313	-191.6006927490235	582.5303955078126	-1214.52392578125	-116.9662551879883	539.4168701171876	-1213.480346679688	-83.53853607177736	569.8814697265626	-1190.64208984375	-108.8034591674805	480.666717529297	-1196.583862304688	-83.70215606689455	434.9457092285157	-1182.517333984375	-72.28692626953126	440.7120666503907	-1066.005615234375	-128.7278442382813	273.1797485351563	-1081.460327148438	-190.6747436523438	250.1186218261719	-1141.731323242188	-161.0640258789063	232.4436035156251	-1109.99560546875	-215.237777709961	181.1410522460938	-1068.41064453125	-358.1609191894532	108.50732421875	-1079.624633789063	-315.3075561523438	126.1593856811524	-1006.2177734375	-416.7964477539064	94.6461868286133	-1016.987731933594	-215.1954345703126	45.88962173461915	-1017.715637207031	-209.7036437988282	44.3498764038086	-1068.796630859375	-257.3061828613282	32.66010284423829	-1112.924682617188	-237.0018310546876	664.6915283203126	-846.6885375976565	-170.2596740722657	663.4573364257814	-848.1420898437502	-152.7699737548828	690.4052124023439	-854.8656005859377	-123.302963256836	591.8403930664064	-864.023376464844	-3.115411043167115	526.6291503906251	-876.3880615234377	-3.585740804672242	526.0030517578126	-999.1614379882815	165.1399993896485	456.7376403808595	-903.5245361328127	183.1983947753907	346.8697509765626	-868.0418701171877	208.3833618164063	385.6567687988282	-877.9979248046877	255.4676513671876	365.5105285644532	-906.8009033203127	316.8824157714844	239.5475769042969	-876.2882080078127	330.3219604492188	271.2857360839844	-956.5139770507815	331.1875305175782	163.6994171142578	-941.088562011719	446.2914428710939	347.8833923339844	-921.514831542969	436.4445800781251	348.2001037597657	-874.2305297851565	429.4898376464845	300.5945739746094	-832.0078125000002	
884	4.415	-198.0493469238282	1512.293334960938	-1118.663452148438	-355.2896423339844	1468.52294921875	-1181.453857421875	-349.4519958496094	1454.154174804688	-1036.894287109375	-419.5603332519532	1311.247436523438	-1103.568359375	-488.7173156738282	1039.04052734375	-1070.609619140625	-279.2669982910157	1263.82861328125	-1112.466064453125	-335.1438598632813	1307.791015625	-1252.748168945313	-175.4361724853516	1248.435668945313	-1382.956909179688	-147.6485748291016	1281.071411132813	-1354.63623046875	-105.8704071044922	1254.654296875	-1389.567138671875	-44.16016006469727	1257.0546875	-1390.263305664063	-34.7340202331543	1182.228271484375	-1368.601684570313	nan	nan	nan	250.8263092041016	1267.557861328125	-1347.744384765625	309.4010314941407	1277.052856445313	-1254.141845703125	-315.3975219726563	1316.683715820313	-974.9258422851565	-161.3298950195313	1290.693481445313	-855.445983886719	-125.9043655395508	1296.66845703125	-888.4744262695315	-94.21981048583986	1284.51611328125	-838.340515136719	-20.76772117614746	1279.613891601563	-828.0815429687502	-17.62996292114258	1200.532836914063	-840.6326293945315	253.6999511718751	1261.076293945313	-916.0964355468752	265.5601196289063	1280.591674804688	-848.7689208984377	334.8579101562501	1293.263305664063	-924.1878662109377	-329.4807128906251	846.1480102539065	-1156.834716796875	-368.5383605957032	872.8272705078127	-911.5005493164065	-514.5620727539064	868.494323730469	-1052.349487304688	-516.7850341796876	834.2864379882815	-1078.424926757813	-524.9787597656251	838.0601196289065	-1022.921752929688	-191.5325469970703	582.5823974609376	-1214.49560546875	-116.9594116210938	539.4453125000001	-1213.476196289063	-83.46495819091798	569.9149780273439	-1190.656005859375	-108.7707901000977	480.6707763671876	-1196.587646484375	-83.66957092285158	434.9886474609376	-1182.475463867188	-72.40947723388673	440.6997985839845	-1065.951782226563	-128.6827545166016	273.1697692871094	-1081.470947265625	-190.6749420166016	250.0981903076172	-1141.747192382813	-161.0067138671875	232.3904571533204	-1109.938842773438	-215.2650299072266	181.202621459961	-1068.356689453125	-358.1462402343751	108.4840240478516	-1079.623168945313	-315.0614624023438	126.4746627807617	-1006.078430175781	-416.8403320312501	94.60351562500001	-1016.961608886719	-215.1723327636719	45.90307998657227	-1017.674743652344	-209.728500366211	44.36270904541016	-1068.816528320313	-257.3300476074219	32.67458724975587	-1112.840942382813	-237.3522949218751	664.2272949218751	-847.2922973632815	-170.183334350586	663.4887084960939	-848.1606445312502	-152.619125366211	690.3889770507814	-855.0194091796877	-123.1598205566407	591.8153686523439	-864.1560668945315	-3.092709779739381	526.6212158203126	-876.4343872070315	-3.551793813705445	525.9142456054689	-999.2824707031252	165.1087799072266	456.632049560547	-903.7474365234377	183.1242065429688	346.8676147460938	-868.1694335937502	208.3952941894532	385.5191040039064	-878.1706542968752	255.5214080810547	365.1817016601563	-907.015563964844	316.7056884765626	239.3730773925782	-876.4890136718752	329.8309631347657	271.6282653808594	-956.7235107421877	330.8151245117188	163.6376190185547	-941.0896606445315	446.2173156738282	347.5642089843751	-921.5603027343752	436.3558654785157	348.0180969238282	-874.289733886719	429.3701171875001	300.4871520996094	-832.1705322265627	
